<mxfile host="app.diagrams.net" modified="2023-10-10T19:30:51.031Z" agent="Mozilla/5.0 (Windows NT 10.0; Win64; x64) AppleWebKit/537.36 (KHTML, like Gecko) Chrome/116.0.0.0 Safari/537.36 OPR/102.0.0.0" version="21.7.4" etag="S6ELkbic-g9tApXnc25R" type="github">
  <diagram name="Page-1" id="6mNBXjtlpJPp7EzaNWkX">
    <mxGraphModel>
      <root>
        <mxCell id="0" />
        <mxCell id="1" parent="0" />
      </root>
    </mxGraphModel>
  </diagram>
</mxfile>
